<svg xmlns="http://www.w3.org/2000/svg" viewBox="0 0 148.15 149"><title>logo</title><path d="M59.14,2c-2.8,2.6-2.8,2.8.6,2.2,3-.5,5.2-1.9,5.2-3.3C64.94-.72,61.34,0,59.14,2Z" transform="translate(0.02 0)"/><path d="M91.64,2.58c-.3.3.6,1.7,2.1,2.9,3.2,2.8,5.5,1.6,2.7-1.5C94.64,2,92.84,1.48,91.64,2.58Z" transform="translate(0.02 0)"/><path d="M147.8,143.56c2,4.78-5.14,5.23-25.84,3.34-16.9-1.5-21.7-1.5-29.5.4a85.58,85.58,0,0,1-16.2,1.7c-8.3,0-9.4-.2-12.1-2.5-1.7-1.4-3.9-2.5-4.9-2.5a20.61,20.61,0,0,1-5.2-1.1c-2.4-.9-3.8-.9-5.4,0-4.8,2.5-14.3,5.1-18.4,5.1-4.7,0-8.3-2.5-8.3-5.8,0-1-1.6-3.3-3.5-5.2-4.3-4.2-4.4-5.2-.3-4.8,3.2.3,3.3.2,3-3.1l-.4-3.4,3.7,2.3c2,1.2,3.8,2,4,1.8a23.08,23.08,0,0,0,1.3-4.3l.8-3.9,2.2,4.7c1.2,2.6,2.9,4.7,3.7,4.7,1.7,0,1.8-.7.6-4.6-.19-.6-.4-1.32-.61-2.08l.8-.28a10.72,10.72,0,0,0,2.69,4.16,17.67,17.67,0,0,1,3,3.4c0,.2-1.5.4-3.2.4-8.9,0-17.7,5.5-16.5,10.2,1.3,5.2,8.1,5.8,19.5,1.6,5.7-2.1,5.7-2.1,4.2-4.8-1-1.8-.8-1.8,2.7.2a28.05,28.05,0,0,0,4.8,2.5c.5.1,2,.5,3.2.9,3.2.9,3.8-1.6,1.7-7.1-2.2-6-.7-8.1,2.7-3.6,3.2,4.3,4.2,3.9,3.5-1.3-.9-5.8.8-6.8,3.5-2.1,2.2,3.7,3.8,3.4,3.9-.7,0-2.3,2-3.4,3.1-1.7a7.93,7.93,0,0,1,.9,3.6c0,2.6-.1,2.5,5.8,1.4,2.6-.5,4-.5,3.5,0s-3.4,1.4-6.4,1.9c-10.4,1.7-15.8,3.9-16.5,6.4a7.24,7.24,0,0,0,3.7,7.7c2.6,1.3,22.5.4,26.6-1.2,6.4-2.6,7.8-3.6,10.6-7.9,1.6-2.5,2.6-3.6,2.2-2.5a14.41,14.41,0,0,0-.9,4.9c-.1,3.9,1.7,4.4,22.8,5.7,14,1,17,.9,17.7-.2a5.6,5.6,0,0,0,.9-2.1.48.48,0,0,0-.05-.17ZM75.94,130.5a2.33,2.33,0,0,0-1-2c-.6-.4-1,.5-1,2s.4,2.4,1,2A2.33,2.33,0,0,0,75.94,130.5ZM68,133.6c1,.6,1.2-1.7.3-4-.3-.9-1-1.6-1.4-1.6-1,0,0,4.9,1.12,5.6Zm-5.9,3.4a.79.79,0,0,0,.8-.78v0c-.1-1.5-2.6-5.2-3.2-4.6-.8.8,1.2,5.38,2.42,5.38Zm-30.2-5.6c.7-.7.7-2,.2-3.4-.9-2.4-.9-2.4-1.5.6C30.06,131.9,30.56,132.8,31.94,131.4Zm-5,2.3a5.75,5.75,0,0,0-2-3.2c-1.9-1.8-2-1.7-2,.1,0,2,1.7,4.4,3.2,4.4C26.56,135,26.94,134.4,26.94,133.7Zm-4.3,3.9c.4-.4-.1-1.4-1.1-2.2-3.1-2.2-4.3-1.7-1.9.8,1.3,1.2,2.62,1.78,3,1.4Z" transform="translate(0.02 0)"/><path d="M147.8,143.56l-.89.07c-1.09-2.24-18.58-19.31-25.75-24.93-3.9-3.2-8.2-7.1-9.4-8.7s-2.5-2.7-3-2.4-.8,2.9-.9,5.7a23.08,23.08,0,0,1-1,7.2c-.7,1.5-.8,1.2-.4-1.5.3-1.9.8-17.9,1.1-35.6.7-34.1.2-40.9-3.7-51.6-3-8.1-4.3-8.9-7.9-5-2.3,2.6-3.7,3.2-7,3.2h0V29a7.67,7.67,0,0,0,5-2c2.7-2.7,2.8-11,.3-13.2-5.7-4.9-16.3-.9-16.3,6.1v.18h-1c0-2.6-.4-3.1-2.3-3.1a4.18,4.18,0,0,0-3.6,2.3c-3.3,6.2-12.7,7.2-18,1.9-2.7-2.7-4.3-2.6-12.8.9-2.9,1.2-3.3,1.1-5.1-1.1s-2.3-2.3-4.4-1.3c-.54.24-1.08.52-1.61.82l-.41-.72,5.52-3.1,1.8,2.4c1.7,2.2,2,2.3,5.1,1a31.74,31.74,0,0,1,6.7-1.8c2.4-.4,3.8-1.4,5.3-4a15.38,15.38,0,0,1,4.7-4.8c5.5-3,11.9-.9,13.6,4.5.8,2.5,4.7,2.7,6.6.3C79.94,12.1,85.26,10,88.94,10s9,4.7,9,7.8c0,1.1,1.6,3.9,3.5,6.2a33.82,33.82,0,0,1,5.2,9.8c2.1,7,2.7,7.9,7.5,10.3,2.1,1.1,3.8,2.7,3.8,3.6s-1.33,4.09-4.6,6.5c-2.6,2.7-4.4,5.6-4.2,6.6s2.9,3.4,6.1,5.5c3.5,2.4,5.7,4.6,5.7,5.7,0,2.1-4.9,6.3-9.3,7.9-2.1.8-2.8,1.7-2.5,3.2.3,2.4.9,2.8,8.1,5.8,3,1.3,4.7,2.6,4.7,3.7,0,2.3-2.71,5.07-6,6.4-2.31.93-6,2.9-6,5.1,0,2.5,2,3.3,6.2,2.2a16.26,16.26,0,0,1,5.6-.5c2,.3,2.2.9,2.2,6.4,0,8.2,3,11.9,6.9,8.4a9.69,9.69,0,0,1,4.5-1.8c4.2-.5,5.3,1.8,3.9,8.4l-1.1,5.3,4.9,5C145.5,140,147.13,142,147.8,143.56Zm-9.74-18.06c.4-4.9.4-5-2.7-5.3-3.92.74-6.3,2.1-3.8,5.1,3.1,3.6,5.5,5.9,5.9,5.6A30.68,30.68,0,0,0,138.06,125.5Zm-15.7-8.5c.4,0,.6-2.1.4-4.8-.3-4.4-.5-4.7-3.3-5-4-.3-5.9,1-5.1,3.6.58,1.9,6.2,6.18,8,6.18Zm-2.6-22.2c1.1-1.4.9-1.9-1.5-3.6-3.2-2.2-7.7-3.5-8.7-2.5s-.8,10.1.2,10.7S118.16,96.7,119.76,94.8Zm-1.3-22.3c0-1.1-1.5-2.9-3.4-4.2-3-2-4.9-2.8-5.2-2.1,0,.2-.3,3.1-.6,6.5-.3,5-.2,6.3,1,6.3C112.76,79,118.46,74.5,118.46,72.5Zm-1.52-23.9c.29-.64-1.8-2.2-4-3.4l-4-2.1.1,4.2a22.86,22.86,0,0,0,.8,6.1c.6,1.7.9,1.6,3.9-.9A11.21,11.21,0,0,0,116.94,48.6Zm-47-32.5c0-2.8-2.2-6.1-4-6.1a11.82,11.82,0,0,1-2.2-.4c-3-1-8.9,3.6-10.3,8.1-.8,2.8-.1,2.9,2.5.3s5.3-1.6,4.8,2.1c-.4,2.6-.2,2.9,2.4,2.9A7,7,0,0,0,69.94,16.1ZM59.94,19c0-.5-.6-1-1.4-1-1.6,0-3.1,1.8-2.2,2.7S59.94,20.2,59.94,19Z" transform="translate(0.02 0)"/><path d="M146.94,143.63a.48.48,0,0,1,.05.17,5.6,5.6,0,0,1-.9,2.1c-.7,1.1-3.7,1.2-17.7.2-21.1-1.3-22.9-1.8-22.8-5.7a14.41,14.41,0,0,1,.9-4.9c.4-1.1-.6,0-2.2,2.5-2.8,4.3-4.2,5.3-10.6,7.9-4.1,1.6-24,2.5-26.6,1.2a7.24,7.24,0,0,1-3.7-7.7c.7-2.5,6.1-4.7,16.5-6.4,3-.5,5.9-1.4,6.4-1.9s-.9-.5-3.5,0c-5.9,1.1-5.8,1.2-5.8-1.4a7.93,7.93,0,0,0-.9-3.6c-1.1-1.7-3.1-.6-3.1,1.7-.1,4.1-1.7,4.4-3.9.7-2.7-4.7-4.4-3.7-3.5,2.1.7,5.2-.3,5.6-3.5,1.3-3.4-4.5-4.9-2.4-2.7,3.6,2.1,5.5,1.5,8-1.7,7.1-1.2-.4-2.7-.8-3.2-.9a28.05,28.05,0,0,1-4.8-2.5c-3.5-2-3.7-2-2.7-.2,1.5,2.7,1.5,2.7-4.2,4.8-11.4,4.2-18.2,3.6-19.5-1.6-1.2-4.7,7.6-10.2,16.5-10.2,1.7,0,3.2-.2,3.2-.4a17.67,17.67,0,0,0-3-3.4A10.58,10.58,0,0,1,37.28,124,6.43,6.43,0,0,1,37,122.2c0-2.8.2-3,5.3-3.6,2.8-.3,11.6-.9,19.5-1.2,15.6-.7,15.8-.8,13-7-.8-1.7-.9-2.9-.3-3.1,3-1,7.8-4.7,6.7-5-.7-.3-2.4.2-3.7,1.1-4.9,3.3-10,1.4-11.1-4-.6-3-.4-3.3,5.2-5.8,3.1-1.4,5.5-2.9,5.1-3.2s-1.9.2-3.6,1c-3.4,1.8-6.1,2.1-6.1.6a68.75,68.75,0,0,0-3.7-8.6l-3.7-7.7-8.3.6-8.2.5-1.15-3.4a12.25,12.25,0,0,0-9-7.9c-3.7-.8-3.8-2.7-.2-4.3a54.76,54.76,0,0,0,9.4-5.6c3.1-2,7.1-1.7,12.1.9,1.5.8,2.5.9,2.1.3-1.2-1.8,1.9-2.8,9.2-2.8,7.6,0,16.4-2.2,20.4-5a17.39,17.39,0,0,0,4.3-5.2L92,40.5l-3.3,3.7Q81.87,52,70.06,52c-6.3,0-6.4,0-4.6-2,1-1.1,1.3-2,.7-2s-1.2.3-1.2.8-2.2,1.8-4.9,3c-4.1,2-5.8,2.3-10.5,1.7-4.1-.5-5.6-1.1-5.6-2.3,0-.9-1.5.1-3.6,2.6-3.7,4.4-8.8,7.2-13,7.2-3,0-3.2-2.6-.3-5.6,1.8-1.9,1.9-2.7,1-6a34.85,34.85,0,0,1-1.1-7.6,14.53,14.53,0,0,0-2.5-7.4c-1.4-2-2.5-4.7-2.5-6,0-2,3.45-5.71,7.19-7.88.53-.3,1.07-.58,1.61-.82,2.1-1,2.7-.8,4.4,1.3s2.2,2.3,5.1,1.1c8.5-3.5,10.1-3.6,12.8-.9,5.3,5.3,14.7,4.3,18-1.9a4.18,4.18,0,0,1,3.6-2.3c1.9,0,2.3.5,2.3,3.1,0,6.2,4.47,9.9,12,9.9h0c3.3,0,4.7-.6,7-3.2,3.6-3.9,4.9-3.1,7.9,5,3.9,10.7,4.4,17.5,3.7,51.6-.3,17.7-.8,33.7-1.1,35.6-.4,2.7-.3,3,.4,1.5a23.08,23.08,0,0,0,1-7.2c.1-2.8.5-5.4.9-5.7s1.9.8,3,2.4,5.5,5.5,9.4,8.7C128.33,124.32,145.82,141.39,146.94,143.63Z" transform="translate(0.02 0)" fill="#31d996"/><path d="M135.36,120.2c3.1.3,3.1.4,2.7,5.3a30.68,30.68,0,0,1-.6,5.4c-.4.3-2.8-2-5.9-5.6C129.06,122.3,131.44,121,135.36,120.2Z" transform="translate(0.02 0)" fill="#ff8d0a"/><path d="M122.76,112.2c.2,2.7,0,4.8-.4,4.8-1.8,0-7.4-4.3-8-6.2-.8-2.6,1.1-3.9,5.1-3.6C122.26,107.5,122.46,107.8,122.76,112.2Z" transform="translate(0.02 0)" fill="#ff8d0a"/><path d="M118.26,91.2c2.4,1.7,2.6,2.2,1.5,3.6-1.6,1.9-8.9,5.2-10,4.6s-1.1-9.8-.2-10.7S115.06,89,118.26,91.2Z" transform="translate(0.02 0)" fill="#ff8d0a"/><path d="M115.06,68.3c1.9,1.3,3.4,3.1,3.4,4.2,0,2-5.7,6.5-8.2,6.5-1.2,0-1.3-1.3-1-6.3.3-3.4.6-6.3.6-6.5C110.16,65.5,112.06,66.3,115.06,68.3Z" transform="translate(0.02 0)" fill="#ff8d0a"/><path d="M112.94,45.2c2.2,1.2,4.29,2.76,4,3.4a11.21,11.21,0,0,1-3.2,3.9c-3,2.5-3.3,2.6-3.9.9a22.86,22.86,0,0,1-.8-6.1l-.1-4.2Z" transform="translate(0.02 0)" fill="#ff8d0a"/><path d="M94.26,13.8c2.5,2.2,2.4,10.5-.3,13.2a7.65,7.65,0,0,1-5,2,2.73,2.73,0,0,1-2.44-1c-.3-.6-.2-1,.4-1,1.6,0,2.4-4,1.1-5.5-1.8-2.1-4.7-1.8-6.4.6-1.87,2.66-3.54,1.63-3.6-2V19.9C77.94,12.9,88.56,8.9,94.26,13.8Z" transform="translate(0.02 0)" fill="#fff"/><path d="M92.06,40.5l-1.8,3.3A17.38,17.38,0,0,1,85.94,49c-4,2.8-12.8,5-20.4,5-7.3,0-10.4,1-9.2,2.8.4.6-.6.5-2.1-.3-5-2.6-9-2.9-12.1-.9a54.76,54.76,0,0,1-9.4,5.6c-3.6,1.6-3.5,3.5.2,4.3a12.25,12.25,0,0,1,9,7.9l1.1,3.4,8.2-.5,8.3-.6,3.7,7.7a68.75,68.75,0,0,1,3.7,8.6c0,1.5,2.7,1.2,6.1-.6,1.7-.8,3.3-1.3,3.6-1s-2,1.8-5.1,3.2c-5.6,2.5-5.8,2.8-5.2,5.8,1.1,5.4,6.2,7.3,11.1,4,1.3-.9,3-1.4,3.7-1.1,1.1.3-3.7,4-6.7,5-.6.2-.5,1.4.3,3.1,2.8,6.2,2.6,6.3-13,7-7.9.3-16.7.9-19.5,1.2-5.1.6-5.3.8-5.3,3.6a6.43,6.43,0,0,0,.29,1.84l-.8.28c-.36-1.25-.7-2.58-.89-3.52-.5-2.2-2.4-3.8-8.7-7.4-7.7-4.5-12.9-9.7-14.4-14.5a2.78,2.78,0,0,0-2.2-1.9c-.8,0-1.7-.9-2-1.9a3.88,3.88,0,0,0-1.9-2.5A2.87,2.87,0,0,1,4.94,90c0-1.1-.5-2-1.1-2s-.8-1.1-.4-2.9-.1-4.3-1.6-7.4c-1.3-2.6-2.1-4.8-1.8-4.9s1.9-1.3,3.7-2.6l3.2-2.28,6,2.2A76.38,76.38,0,0,1,24,75.6c5,3.4,5.3,3.4,10.7,2.4,3.1-.5,5.7-1,5.9-1s.3-.8.3-1.9c0-3.3-3.9-7.1-8.6-8.2-2.4-.6-4.4-1.5-4.4-2s-1.1-1.4-2.5-1.9c-3-1.1-3.2-3.9-.6-7.1,1.6-2,1.8-3.5,1.4-9.9-.4-4.9-1.2-8.4-2.4-10.1-5.3-7.6-4.4-10.7,4.7-16l.18-.1.41.72c-3.72,2.17-7.19,5.87-7.19,7.88,0,1.3,1.1,4,2.5,6a14.53,14.53,0,0,1,2.5,7.4A34.85,34.85,0,0,0,28,49.4c.9,3.3.8,4.1-1,6-2.9,3-2.7,5.6.3,5.6,4.2,0,9.3-2.8,13-7.2,2.1-2.5,3.6-3.5,3.6-2.6,0,1.2,1.5,1.8,5.6,2.3,4.7.6,6.4.3,10.5-1.7,2.7-1.2,4.9-2.6,4.9-3s.5-.8,1.2-.8.3.9-.7,2c-1.8,2-1.7,2,4.6,2,7.9,0,14.1-2.6,18.7-7.8Zm-18.2,74.9c.5-.4-.7-4.6-1.8-6.3-.8-1.2-1.4-1.2-4-.1-3.6,1.4-5,.8-3.1-1.5,1.5-1.8.9-2.6-3.3-4.1l-3.1-1,3.2-2.4c2.8-2.1,3-2.4,1.5-3.6A10.3,10.3,0,0,0,61.73,95a7.8,7.8,0,0,0,2.63-1.26c1.6-1.1,1.5-1.7-.9-7-2.9-6.3-3.3-6.4-13.5-4.7-2.5.4-7.4,1-11,1.4s-7.1,1-7.7,1.4c-1.3.8.4,6.5,5.7,19.2,1.7,4.1,3.6,8.8,4.2,10.3l1.1,2.9,15.6-.7C66.46,116.1,73.66,115.6,73.86,115.4ZM68,107.5c2-2.4.6-2.8-1.5-.5-1,1.1-1.3,2-.8,2a4.17,4.17,0,0,0,2.28-1.5Zm-2.3-11.9c.4-.3-.2-.6-1.3-.5s-1.4.3-.6.6A2,2,0,0,0,65.66,95.6Zm-3.5,6.9c2,.8,4.1-.2,3.3-1.6-.8-1.1-1.6-1.1-3.5.1C60.76,101.8,60.76,102,62.16,102.5Zm-3.4-24.3c.5-1.5-5.8-1.4-18.7.3-5.8.8-9.9,1.9-10.9,2.9-1.5,1.5-1.4,1.6.8,1.5C38.06,82.6,58.36,79.3,58.76,78.2Zm-20,39.6c1.2.2,2.2.1,2.2-.2s-2.7-7.2-6-15.4-6-15.5-6-16.1-1.5-1.1-3.4-1.1h-3.5l4.4,10.5C33.94,113.3,36.26,117.5,38.76,117.8Zm-6-3.2c.2-.3-2.5-7.4-6.1-15.7l-6.6-15.3-5.3-2.9c-2.9-1.6-6.8-3.7-8.6-4.8-4.4-2.5-4.5-2.5-2.7,1.8,1.9,4.6,3.3,6.3,5.2,6.3,1,0,1.1.4.3,1.9s-.6,2.1,1,2.6a2.89,2.89,0,0,1,2,2.6c0,1,.4,1.9,1,1.9s.8,1,.6,2.2.8,4.4,2.2,6.9c1.9,3.5,4.2,5.6,9.5,8.8C29.06,113.2,32.46,114.9,32.76,114.6ZM12.46,77.9c10.6,5.7,14.8,6.5,14.3,2.8-.2-1.6-2.5-3.4-9.3-6.9A91.6,91.6,0,0,0,7.36,69a5.15,5.15,0,0,0-2.8,1.9C2.94,72.7,3.26,73,12.46,77.9Zm0,17.1c.3-.6-.3-1-1.4-1S9,94.4,9,95s.6,1,1.4,1a2.82,2.82,0,0,0,2.1-1Zm-2-4c.4-.6-.5-1-2-1s-2.4.4-2,1a2.58,2.58,0,0,0,2,1,2.58,2.58,0,0,0,2-1ZM6.94,86c1.3-.8,1.3-1-.2-1a2.78,2.78,0,0,0-2.3,1C3.66,87.3,4.94,87.3,6.94,86Z" transform="translate(0.02 0)"/><path d="M88.94,29v1c-7.51,0-12-3.7-12-9.88h1c.06,3.65,1.73,4.68,3.6,2,1.7-2.4,4.6-2.7,6.4-.6,1.3,1.5.5,5.5-1.1,5.5-.6,0-.7.4-.4,1A2.75,2.75,0,0,0,88.94,29Zm-2-6c0-.5-.6-1-1.4-1-1.6,0-3.1,1.8-2.2,2.7S86.94,24.2,86.94,23Z" transform="translate(0.02 0)"/><path d="M85.56,22c.8,0,1.4.5,1.4,1,0,1.2-2.8,2.5-3.6,1.7S83.94,22,85.56,22Z" transform="translate(0.02 0)" fill="#35fffc"/><path d="M74.94,128.5a2.5,2.5,0,0,1,.5,3.5,2.37,2.37,0,0,1-.5.5c-.6.4-1-.5-1-2S74.36,128.1,74.94,128.5Z" transform="translate(0.02 0)" fill="#fff"/><path d="M72.06,109.1c1.1,1.7,2.3,5.9,1.8,6.3-.2.2-7.4.7-16,1.1l-15.6.7-1.1-2.9c-.6-1.5-2.5-6.2-4.2-10.3-5.3-12.7-7-18.4-5.7-19.2.6-.4,4.1-1,7.7-1.4s8.5-1,11-1.4c10.2-1.7,10.6-1.6,13.5,4.7,2.4,5.3,2.5,5.9.9,7A7.66,7.66,0,0,1,61.73,95a10.44,10.44,0,0,1,1.53,1.44c1.5,1.2,1.3,1.5-1.5,3.6l-3.2,2.4,3.1,1c4.2,1.5,4.8,2.3,3.3,4.1-1.9,2.3-.5,2.9,3.1,1.5C70.66,107.9,71.26,107.9,72.06,109.1Z" transform="translate(0.02 0)" fill="#bf0000"/><path d="M65.94,10c1.8,0,4,3.3,4,6.1a7,7,0,0,1-6.8,6.9c-2.6,0-2.8-.3-2.4-2.9.5-3.7-2.1-4.8-4.8-2.1s-3.3,2.5-2.5-.3c1.4-4.5,7.3-9.1,10.3-8.1A11.82,11.82,0,0,0,65.94,10Z" transform="translate(0.02 0)" fill="#fff"/><path d="M66.46,107c2.1-2.3,3.5-1.9,1.5.5a4.08,4.08,0,0,1-2.3,1.5C65.16,109,65.46,108.1,66.46,107Z" transform="translate(0.02 0)" fill="#fff"/><path d="M68.36,129.6c.9,2.3.7,4.6-.3,4S65.94,128,66.94,128C67.36,128,68.06,128.7,68.36,129.6Z" transform="translate(0.02 0)" fill="#fff"/><path d="M64.36,95.1c1.1-.1,1.7.2,1.3.5a2,2,0,0,1-1.9.1C62.94,95.4,63.26,95.1,64.36,95.1Z" transform="translate(0.02 0)" fill="#fff"/><path d="M65.46,100.9c.8,1.4-1.3,2.4-3.3,1.6-1.4-.5-1.4-.7-.2-1.5C63.86,99.8,64.66,99.8,65.46,100.9Z" transform="translate(0.02 0)" fill="#fff"/><path d="M62.94,136.2a.79.79,0,0,1-.78.8h0c-1.2,0-3.2-4.6-2.4-5.4C60.36,131,62.86,134.7,62.94,136.2Z" transform="translate(0.02 0)" fill="#fff"/><path d="M58.56,18c.8,0,1.4.5,1.4,1,0,1.2-2.8,2.5-3.6,1.7S56.94,18,58.56,18Z" transform="translate(0.02 0)" fill="#35fffc"/><path d="M40.06,78.5c12.9-1.7,19.2-1.8,18.7-.3-.4,1.1-20.7,4.4-28.8,4.7-2.2.1-2.3,0-.8-1.5C30.16,80.4,34.26,79.3,40.06,78.5Z" transform="translate(0.02 0)" fill="#ccc"/><path d="M40.94,117.6c0,.3-1,.4-2.2.2-2.5-.3-4.8-4.5-12.3-22.3L22.06,85h3.5c1.9,0,3.4.5,3.4,1.1s2.7,7.8,6,16.1S40.94,117.4,40.94,117.6Z" transform="translate(0.02 0)" fill="#bf0000"/><path d="M26.66,98.9c3.6,8.3,6.3,15.4,6.1,15.7s-3.7-1.4-7.5-3.7c-5.3-3.2-7.6-5.3-9.5-8.8-1.4-2.5-2.4-5.6-2.2-6.9S13.46,93,12.94,93s-1-.9-1-1.9a2.89,2.89,0,0,0-2-2.6c-1.6-.5-1.8-1-1-2.6s.7-1.9-.3-1.9c-1.9,0-3.3-1.7-5.2-6.3-1.8-4.3-1.7-4.3,2.7-1.8,1.8,1.1,5.7,3.2,8.6,4.8l5.3,2.9Z" transform="translate(0.02 0)" fill="#bf0000"/><path d="M32.16,128c.5,1.4.5,2.7-.2,3.4-1.4,1.4-1.9.5-1.3-2.8C31.26,125.6,31.26,125.6,32.16,128Z" transform="translate(0.02 0)" fill="#fff"/><path d="M26.76,80.7c.5,3.7-3.7,2.9-14.3-2.8-9.2-4.9-9.5-5.2-7.9-7A5.13,5.13,0,0,1,7.36,69a89.69,89.69,0,0,1,10.1,4.8C24.26,77.3,26.56,79.1,26.76,80.7Z" transform="translate(0.02 0)" fill="#ccc"/><path d="M24.94,130.5a5.75,5.75,0,0,1,2,3.2c0,.7-.4,1.3-.8,1.3-1.5,0-3.2-2.4-3.2-4.4C22.94,128.8,23.06,128.7,24.94,130.5Z" transform="translate(0.02 0)" fill="#fff"/><path d="M21.56,135.4c1,.8,1.5,1.8,1.1,2.2s-1.7-.2-3-1.4C17.26,133.7,18.46,133.2,21.56,135.4Z" transform="translate(0.02 0)" fill="#fff"/><path d="M11.06,94c1.1,0,1.7.4,1.4,1a2.83,2.83,0,0,1-2.1,1c-.8,0-1.4-.5-1.4-1S9.86,94,11.06,94Z" transform="translate(0.02 0)" fill="#fff"/><path d="M8.46,90c1.5,0,2.4.4,2,1a2.5,2.5,0,0,1-4,0C6.06,90.4,6.94,90,8.46,90Z" transform="translate(0.02 0)" fill="#fff"/><path d="M6.76,85c1.5,0,1.5.2.2,1-2,1.3-3.3,1.3-2.5,0A2.78,2.78,0,0,1,6.76,85Z" transform="translate(0.02 0)" fill="#fff"/><path d="M27.34,26.38c-.8,2-.1,4.9,1.1,5.3.9.3,3.5-4.1,3.5-5.9C31.94,24.38,27.94,24.88,27.34,26.38Z" transform="translate(0.02 0)"/><path d="M50.44,28.78a20.49,20.49,0,0,0-2.5,2.6c-1.5,1.9-1.4,1.9,1.2.2,1.6-1,3.5-1.5,4.7-1.1,2,.6,5.1,6.1,5.1,8.9,0,2.5,1.9,1.9,2.6-.8.8-3.2-1-6.3-4.9-8.6C53.14,27.88,52,27.58,50.44,28.78Z" transform="translate(0.02 0)"/><path d="M51.24,35.68c-1.3.5-1.8,4.5-.7,5.6s3.4-.6,3.4-2.8C53.94,35.88,53.14,35,51.24,35.68Z" transform="translate(0.02 0)"/><path d="M46.44,90a2.21,2.21,0,0,0,.4,2.4,1.55,1.55,0,0,1,.11,2.2,1,1,0,0,1-.21.2c-2,2,1.7,5,4.1,3.5,1.4-.9,2.2-.9,3.2,0s1.1.9.1-.4c-.6-.9-.8-2-.4-2.4s.2-.5-.4-.2c-1.4.8-3.9-1.9-3.9-4.1C49.44,89.28,47.34,88.48,46.44,90Zm2.5,1a1,1,0,0,1-1,1,1.08,1.08,0,0,1-1-1,1,1,0,0,1,1-1,.94.94,0,0,1,1,.88Zm2,4.5c1,1.2.9,1.6-.5,2.1-1.9.8-4-.9-3.1-2.5S49.44,93.68,50.94,95.48Z" transform="translate(0.02 0)"/><path d="M34.94,90.38a52.62,52.62,0,0,0,2,5c2,4.9,4.6,6,7,3.1,1.6-1.9-1-6.2-4.6-7.5C36.64,89.88,34.94,89.68,34.94,90.38Zm4.9,2.1c3.3,1.7,4.7,4.5,2.9,5.7-2.2,1.3-2.7,1-4.8-3.2C35.64,90.58,35.84,90.38,39.84,92.48Z" transform="translate(0.02 0)"/><path d="M52.94,88.38a52.62,52.62,0,0,0,2,5c2,4.9,4.6,6,7,3.1,1.6-1.9-1-6.2-4.6-7.5C54.64,87.88,52.94,87.68,52.94,88.38Zm4.9,2.1c3.3,1.7,4.7,4.5,2.9,5.7-2.2,1.3-2.7,1-4.8-3.2C53.64,88.58,53.84,88.38,57.84,90.48Z" transform="translate(0.02 0)"/></svg>